<mxfile host="app.diagrams.net" modified="2023-07-26T09:42:51.742Z" agent="Mozilla/5.0 (Windows NT 10.0; Win64; x64) AppleWebKit/537.36 (KHTML, like Gecko) Chrome/112.0.0.0 Safari/537.36" etag="3wn9iAxlOsn9eZmWWf6t" version="21.6.5" type="github">
  <diagram name="Page-1" id="55a83fd1-7818-8e21-69c5-c3457e3827bb">
    <mxGraphModel dx="1434" dy="708" grid="0" gridSize="10" guides="1" tooltips="1" connect="1" arrows="1" fold="1" page="1" pageScale="1" pageWidth="1100" pageHeight="850" background="none" math="0" shadow="0">
      <root>
        <mxCell id="0" />
        <mxCell id="1" parent="0" />
        <mxCell id="yHEKnx-GvSuaAYxst1Mj-5" value="" style="shape=image;imageAspect=0;aspect=fixed;verticalLabelPosition=bottom;verticalAlign=top;image=data:image/jpeg,/9j/4AAQSkZJRgABAQEAYABgAAD/4QAiRXhpZgAATU0AKgAAAAgAAQESAAMAAAABAAEAAAAAAAD/2wBDAAIBAQIBAQICAgICAgICAwUDAwMDAwYEBAMFBwYHBwcGBwcICQsJCAgKCAcHCg0KCgsMDAwMBwkODw0MDgsMDAz/2wBDAQICAgMDAwYDAwYMCAcIDAwMDAwMDAwMDAwMDAwMDAwMDAwMDAwMDAwMDAwMDAwMDAwMDAwMDAwMDAwMDAwMDAz/wAARCAEvAawDASIAAhEBAxEB/8QAHwAAAQUBAQEBAQEAAAAAAAAAAAECAwQFBgcICQoL/8QAtRAAAgEDAwIEAwUFBAQAAAF9AQIDAAQRBRIhMUEGE1FhByJxFDKBkaEII0KxwRVS0fAkM2JyggkKFhcYGRolJicoKSo0NTY3ODk6Q0RFRkdISUpTVFVWV1hZWmNkZWZnaGlqc3R1dnd4eXqDhIWGh4iJipKTlJWWl5iZmqKjpKWmp6ipqrKztLW2t7i5usLDxMXGx8jJytLT1NXW19jZ2uHi4+Tl5ufo6erx8vP09fb3+Pn6/8QAHwEAAwEBAQEBAQEBAQAAAAAAAAECAwQFBgcICQoL/8QAtREAAgECBAQDBAcFBAQAAQJ3AAECAxEEBSExBhJBUQdhcRMiMoEIFEKRobHBCSMzUvAVYnLRChYkNOEl8RcYGRomJygpKjU2Nzg5OkNERUZHSElKU1RVVldYWVpjZGVmZ2hpanN0dXZ3eHl6goOEhYaHiImKkpOUlZaXmJmaoqOkpaanqKmqsrO0tba3uLm6wsPExcbHyMnK0tPU1dbX2Nna4uPk5ebn6Onq8vP09fb3+Pn6/9oADAMBAAIRAxEAPwD9/KKKKACiiigAooooAKKKKACiiigAooooAKKKKACiiigApGbaKWigAByKTJ9KWigBvmUK+7/9VOooAKQtilooAQnA9aWig0AFFFFABRRRQAUUUUAFFFFABRRRQAUUUUAFFFFABRRRQAUVG0jLuyNoHQ9c06J98St/eANADqTBpaKACiiigBDmloooATJpaKKAEOaWiigAooooAKKKKACiiigAooooAKKKKACiiigAooooAKKKKACiiigAooooAKKKKACiiigArhfj1458ZeBNB06fwV4RsfGWpXN55MtldawNLVI/KkcuJWikHBQDBHf8R3VQXlt9oKZz8uew/qP5UAeEJ8dfj4i4b4CaEzAclfiJBgn2zaZ/OuX+Ln7Yvxs+C3wq8UeMtb+A+jLpPhPSL3W71YPHiTS/Z7WJpXC7bPDOVXIUehGTX1EkWyMfM3A9a8t/ah+FU3xy+AfjvwTb30OmN420DUdCF95BlOnNc28tuJvLBBkKmYsRleADk4OQD0HQ9bfV9Fs7xo2h+1RJKIwSxXcAe4Bxz3APsK1VPy15P+yb8Wf+F2fsufDvxo1muir4m8OabqS2jTef9lE8KOI/N6SYDAZwORmvVoyWjXdwccj0oAdRRRQAUUUUAFFFFABRRRQAU1m2Ak/dAp2eKjdd6k/pQB4/+1P+0pqn7PXhbQ7rS/DS+JtY8Ta9a+HdM05rw2cc9xcswiZrkxsqKAhJBUn3rFHx8+PW0Z+AeiBu4/4WJb//ACLWT+0xFHf/ALXPwD0e6aOTT7zU9Yv3s5RuiuJrWwaSJiBj94m8up9ucmvo2CJTH0X5fSgDwSH46/HaSf8A5ITpMMbHDOvjuCXGSAWA+zjO3nI4Jx2r3+3Ja3jLbdxUZ2tuH4HjP1qAwZbKsy8jpjoCTj9frViCPyoEUdFUDmgB1FFFABRRRQAUUUUAFFFFABUbkk/L/WpKBxQAUUUUAFFFFABRRRQAUUUUAFFFFABRRRQAUUUUAFFFFABRRRQAUUUUAFGaKKACiiigAooooAKzhpypI53M0jOzJvOdnGPxHU85xuIGBgDRzxWfdTMySKqk7mKcIWHI7gHOAeuKAPBf+CXTMf8AgnP8CY2XDL4G0cAgZRCLKEnrnqc4NfQ1tGIrdFVdqqoABOcV87/8E1i2kfsoaD4TjEot/hnqOq+AYQ5DNdwaNqM+lw3De7xWiuRx8zHgDgfRMX+rXPXAzkUAPooooAKKKKACiiigAooooAKhlm2Ky/xdqmqF2/eN8o6UAfOvidH1X/gpP4dt7ibdHY/D671OwgZRiG5XUbaCaRPR3hl8s+qt+NfRVsuxNvy9McdK+dfhWh8R/wDBQz4vXF5++fw3oWg2WmM337ZLr7TLMqnphmjiYj/YT3z9GQxqsa7Pu44+lAElFFFABRRRQAUUUUAFFFFABRRRQAUUUUAFFFFABRRRQAUUUUAFFFFABRRRQAUUUUAFBHvRRQAUY/ziiigAoooY4FABRRTS3vQA6iiigAooooAKKKKACoZ7ZZNzZZW2kAqcYqamkMwbp6UAfNf7AtxNB8HfFipGx/4uX46nLNlY2/4qrVUEZIy2eh6Dhht3lSK+kYWZo1yrLkcg9R7Hr/Ovnn9jyzXSPil+0F4ZtF8nQ/CPxHkawtgSWi/tHRdL1q7yxO5xJqGp302HLbfPMa7Y1VF+iUXYoHoMUAOooooAKKTJ9KWgAooooAKKKKACq0zNtZeOuPr3AFWapuvns/zFdrk7vugfLj+tAHz7+xr/AMTj4qfHvVLpmkvl8enTRMPvrbQ2Fm0MWfbzCR7SV9GRpsRV/ujFfOv/AATija+/Zsk1OSNxqWs+KfEdxeTycveyR6vdW8MrN04t4IVHHSNfTn6KU5UbemOKAHUUUUAFFFFABRRRQAUUUUAFFFFABRRRQAUUUUAFFFFABRRRQAUUUUAFFFFABRRRQAUUUUAFFFFABWT458W2fgLwnfa1qU62un6XC9zdTEFvLjVSScAEnp0ArWqvqNutzAFddyk4IIBBBBGDn1zj8aAPBx/wU9+Bap83xF0ncBzutblTn3BjyPoao6h/wVP+BOnmRpPiTo6pDCbiUNBMoVMFi24ptACqxOT6V9FRxbYlXPQAccVzfj3wda+OfCeraLqjM2l6rby2lzEPl3ROhR+eeNrHPFAFrRPF8PijQLDUtNuILy11C1S8glRvlliYI4ZT3BRwQRW8DkV4H+wD4tvvGf7HHgDUNQmWa4XT/s/nqvHkwSvDH7ncsC59jXvURJjXcMNjkelADqKM8U3fxQAM23d7Cq8d/HI2N3Pfiq8l+xJUtCu47cE5Izwv1J547ZFZ8Or+cymHy5IckNLvG3jpjnn8KzqS5Y8xMpcseZm6Jx6N+VMMjDdxtHUEtWeuqIEUmaPbgZx/+umDWohuzcbl7A7cY/OojVg1dtfeZ/WqSdnJfeeD/st6g1t+0T+00ytGqzfEezUkncxI8H+HiTkfwhVOFxnjOeVB+jxMpr5k+GV9F4d/4KEfGKzs5lh0vUvCXhLxHcRDCxtqctxr9lNc7jkGV7XTdNgbHASziOMgE/QY1lXcLG0be+4+3t71H1ygnZyX3krF0n8Mk/Q2POorJfUmT5vMj90AyfzyMflUsGteaNq7d2Pl4LA+nIGK0dWLdotFKvBvluWzK3m7d3GatDpWLBq/2l90aFvlLEAe/X6VsIfkFXG/U2HUUUVYBVWS8dXKhfu4y/8ACOeRyRziiW5dNw2qWU4Cr8xPp6Y6V8w/EL9um38afGDWPhb8NpP7U8caXCj63qxjjbS/CgkPyrJIXYS3Rjwy28auefnZPu0AfUkcvmRg8fMM+tc58RNbuNH8Ga9dQTPFNZ2MsyOqf6shGIbnsNhzXzhN4E+OixsH+PkzSRjAUeCrBWUg4O4FCf61xvx++DX7RXjP4PeLdF8OfHaO417VNNubXT4rjwbYW63G+GUKRLsI4YtkYBI9KLW1A9u/4J66ZFp/7E3wvuY1mkk17w5Y67dufuyXV5Ebyd8di00rnH+0o+vu4fCcfNt4r448H/B34v8Agvw5pui6P8eVg0PRLdLWCKDwXp4jt7eELEoXMfOBnB9IulbEfgP46SzLEPj5dLIxwVXwTpgbPykAAjneD8pGcblyByKA62PqgXMm/Hl/KOSe/wBMdfxq0DkV+WHxV/bt+MHwu/ae8DeF9F+Lln4z0WPx3oWg+L57rw3ZWsGzUNUtNO+xQTxYBukWeSWQYZIymzc7rKI/1Jsm/wBEi/d+X8o+XjjjpwSPyJoB6OxNRRRQAUUUUAFFFFABRRRQAUUUUAFFFFABRRRQAUUUUAFFFFABRRRQAUUUUAFFFFABRRRQAUjrvFLRQAAYFV7ixjmbc277pUjPBBIJH44qxTZG2rQB86/sEzNY+B/iBpdrcRix0H4geINO0yJVxBZwRXbBYIx1OzlSD3zjFfRafcH0r5u/Z5hXTv2vP2gNLWNrO1XVdKvLeADbGwm0yKWadV9HmD72GCzZ5rhP2uf+C5/7O/7Cvxfk8B/EjxtcaX4kt7SK7mtYNGvdQeJZBlI3NtE6rMy/vNjFfldTxQB9lj+Ko2f5W7YHevzpf/g6x/YpiZlPxK1pipwSPCep4P8A5Apv/EVV+xS+7b8S9cYsOB/wiGq8f+QKAPc/+ClX7RnxO/Zi+Al74y+HPh2DxF/YN7LfeIjeWi3S2GixafPLcXMMBurQzss0VugSOcynzZCEbbkfzlfBfwy1x4MtNY1K8h1ua6062uERjIXtmaMGQmRs5djncW3ZOTX64ftff8F+/wBlX9qX9kP4xeBfC/xGvJte8WeAPENppcE+iX9nBezHSrorAHmiSNZGJKruxuclFJkCs35W/AuJrz4U6LG+6OOXTLXcRI29f3S+hwevpXw/G2NeHoR3s3bR2PznxCzCeFw0ZKTir2dmV7L4paPpRVP+EFsJpGa2P/IRKRhLkWxh/wCWZ6faUz9RXrQ8SfDfwN8HrDxl4o8O28NjdTeS9taRLdTRkmTD7nMSlP3eOMkmuY0X9lLw/r6xrcap4i+V0aWOK72ERIsZQhjCV+URxEDttFaP7YHwXvtW/ZOs/CvhbTdW1a6sdQhVCiSzSBESfcchQOXkzkAdBX53/aGExNanh4zknez1PyueZYXGV6VCE5Jt2k7vY3PgV+0N8Bf2gfHVr4Z0PwbcR6/dM0Qa5soIlVI4mkcO4kLjBDbAy4DBSC23m18dtH+H/wAPvHOm6TdTfD3wnp9xpc92uparamfznilWJUIFxDh3Sbfjj7g44Iry3/gnL8L/AInaf+3Z4Q8bfFPR/Gl1oui2N1aPdXsM160Mf9m3EVvGn2pZQo3lCqY2qrkKqjbt+iv29/jd8MvFfxB8Natpdx8L/FH9l2moaZqOjeN7e13RXLG22SqiWjsSu2QAsR7jNep/Z+HpZxGnQquUErvW571PLcNQzuKwteUoKN2uY+b9X8SeEn1+4gj1bwHdaPHqtlp3/CRWVnItpCZrdpZQ0bXgX92y7P8AWHp361y/xQ8N6PrOt6TY+DfHHg3Wv7Qhlu7oaVp5R7UQvGF80C5m27vOJOcfcPSvQrLwjZ+PJ7jxBpPhv4c6hp8ms2tz/YmmaYLnRbjybcxyROhtlRCXkVsqmcZ5NU/iPbW2pa5Z3Vt4D8B+Cv7NhmhnXw1YLbNqaSNDIC5jgh3YWJup/jbOe31NLMKMG1d3TPqFmmGhzNcyldLv1P6Gv+CX1pG//BN79n2RmbzD8NfDqM2/JYf2ZbdT3r6Mj+4v90gYr59/4Jegf8O2f2eV27v+La+HCSRjJ/su2r6EXhK+5w9/ZRufpmFjanHXWyHUUU35q2Ogp3tvvjb+I5JKs+ARgjgnOOtfg3pPibQf2YdF8G2dvcfGg6j8aPFniGOSDwh4y1xWjvY765m8wWenyvJK0sYAcW0JOPvIp4H7zTbpA2PlHOQV3hv85r8EfiPcyXnxM/ZDWPxBfeEQ3xC8VRtq9o1pJJp2PtCbv9IS4hwwGRHPAwTOARinCm5ySQH0wvwI8RaXa+Ebq41D9oHSU8dziy0W1vfif4hsLy4ka3nuSkltcPFLbsI7eU+XMkZG0DGWGKnjD4Xal8N9d0PTNW1r44WN54muWtdPtv8AhcGtSPJMls124V1nx8sEcpJH8Qz04r2XTPBnhO6+Ing/xB4m/aE8VeMk8B6pNrOkWOpN4btbKK6axnsPNKWlhDISkVzMEKSLkvlt2Bjlv2sviRo3iX9ov4Bx6XrWkX0knirVXCWt0S27/hH9TWaTYN3lxBmCAlu45r6PCZHzTUauhjUrKJwFz8MNS0GPbfeIvjNDHHsDD/hcOuYRMugUfv8AoQx655Jrl/jBosw/ZH+JXirT/Hnxu0vVvDvhzV57SO6+IevLLLcQwTvJLGlxMFuIsIhUhZEfHAbO0e7fEaHz7e+ZRJGZUtlZDIjCPEpGAc89OvevJfjBoaaV/wAE+/jEtroz6DFfeH/Es7RJFHBDe3Etlcs1x5anEhlOSzn5mB5NepnvDtHD4aNSm/UmjUTmcBaWENjd/CG2sFWxtV+I/gjbHa/uYh/xUWmn5UGFC8sduNp3EkEnNftxF/q1+g61+Iz6nDB4j+DMSyRedqXxI8FraJK0jNI8eu2EzpkKxLeRFNIQfuLFIWYhCT+3FsWMK7vvYGa+FvrZHRKV5ElFFFUAUUUUAFFFFABRRRQAUUUUAFFIrbqWgAooooAKKKKACiiigAoopM5zQAtFFFABRSbutKDkUAFFFFABRRRQAVHckiE7evapKa59elAHzmLNvD//AAUruJ75vs9v4o+HsVtp6sf+Pye11CV7rgdSkVzbKPQEZzX57fBL4O+E/jD/AMHbn7Sui+LfDPh3xPpsfwts75YdT0yC7jFz5HhuMThZFIEgSSRQ2MgOfWv0H/aBWPQP24PgZ4g1FhHpbQ+IPDlvcY3f8TC7jsriCEDtuhsbtix4zbgcZr4f/ZMXH/B4P+0x8u3/AItFZ8enyeGKAP0V/wCGCfgWq/8AJF/hOPYeEdP/APjVB/YQ+B7KV/4U38K8dOPCdhx/5Cr1ofMtIUwKAPjj/gof+x38J/hj/wAE/f2gfEHhv4Z+AfD+uWvwx8TKl/pnh+0s7pVOkXKMglijVwGXg4IJHByOK/Ab4BXEn/Ct/CMdmsdzcXkWn2sXnOERnmKQjcSQAiyEgn0Rue9f0of8FA/BGufF/wDYb+NXg/w5Y/2h4g8UeBdd0bS7bKx/a7q50+aGBN7ssa5kkUEsw/Cvwe17/giV+2B8Nfg/pKw/D/wP42muLXTbRvD1l4jjuNQ0hVtiZhOriGF1juUZHMM7bZWYKZkKy18vxJk88fCMY9Hc+M4wyGeZUY04q9nc7Xw5+1x4o8M/tCaT4RbwHpsz29tbv/Y5bT2ilQWRg3Gfyjn95DkgsScnnvXXfDX/AIKk6pr/AMOvGGsv8H/DOqWfhvSftt6BcQWTW6xwSyzqq+Xl2G5Au3qRjmvGNZ/4I/ftLeHfEX2HQf2dG13Qcef9sv4dN066aZRMVzF/a0rAbiDnziOehq9p3/BLD9p6e/to779lrQ2tfsnzAXumKyvGmRG0Q1MBl8zb8+TuEoOzjZXyf+q8adZ1I0vmfFR4TlQqc8KPMj1vxT/wUih1f4f+GNS1H4N2sdr8RtdsLfSoLPxFDE0TzwqLXzCUYRo0OWO7G08HGCK8d8Z/Av4e/En4m+JJL74cwaJMnlXcka649822bfvO9GEe4SIwGFAxjjvXTfDn9kwePv24/GX7OVt8FfAMPxB8C6DHruriXxPLFp32eVLWVWjcWhHmp/aUAH7sAc9BxX0Z4Y/4I4fG7wba3kOg+B/hTpkGoBWmVPFt3h8A4H/HiQBkk4XjnjivFzbKcXytYCk4zf2jwM9yPMJQf9nUHGo/tH5a/tW6H4S+CviVLP7PdabodnpU93DBZXT2sk94zKFPmeW+cDjAGfl61D8GbuzutL8VNpLTyaTZ6zOLBpZN80cJiIRGcqCwAAGcAnk96/SL4j/8EF/jl8VHSbWPBvwhvmjXZGZfFl18i+nFgPz61wus/wDBu9+01p+gLY+EbX4P6CvmiaQf8JNdzmUqCMHNkM8Hnn8a+kyvL8W8FChiIfvFq5PqfR5blOOnllPC4qnapdNyfU/YL/gl8cf8E3f2fXH3W+G/h0rt9P7Mtq+gozn8q8Z/Yo+F2sfAP9jf4S+CNeaFtc8G+DNJ0TUTasZbf7Ta2UMEuxiqnbvRsEqDjHA6V7JEf3Q+g71+i0YtU4p9j9cw9P2cFDyRJUe/G7609jxVaSbarbdrNzxnFam0nZXAjzA33x14BxnpX8/fx4s7HWvFv7JNnrmn2eqaddfEPxLFLDeBGjcNLdJHkbhuAK8q+QfSv3A+MX7SHhv4BeHY9T8Vazpumx305tdNtmmH2rVrnYx+x2yEjzLhih2IuS2CAON1fhbF+2p8Do/A3hub4leC9Q1bVvAuvajPFB/amhifTbm4vZ4w8kQ1ESROjnafMARSC8jorBR0YWoqdRTetglTk4e0ex9kJ8JPg/c5uG+HngFV2h8v4QtWwAOhRY8qWUhsA9SOxArS8E+B/hv8O9a/tPQfCvhHRr6FnjjvNM0WG3k27YFZN8Sru3BpNz/xZJ4zivnvSf8Agq38EdP8aahFZ+H7ptWmjTVZ5Brfhh1lL7LRV3nUfL3lbMMscTTOuYQ4Bc1a0j/gqv8ACDwRoNlpmn6KtrYabCun28UfinwwfKhRBEic6seAqqM9eK+6jxZhm42hscvsbq59CeL/ABNa6nY3ClvtlxMY0KvEqsriZupx83vjrXO/tUaStn+wT8Sgu1PL8CarsKxjdxZ3DA/PnB5xxjjivK7z/grN8JdTa18/SY5I9PmFxAr+KPDHyMDkdNWBPXvXE/tUf8FW/AvxI/Z4+IWi2trJJd6r4T1KzhiTxJ4dmLPLZzhcJFqTSyMSy/u4Y5JOeFbrXDn3EqxlH2VJWKjTaldHv3/BOjwfpfir/gpH8MZL+3N1J4b+H3ijxJpoaeQLZXwuNCsFlCBghYW17eRjcpwLmTGCRj9YbVvJjWPaqhQFAUdAK/EL9mD4tePvBnx50P4neDY/Del2dr4du/D9ra6/pk9xNe2t3Lpl1PdFI7mF4lT7DEPKIZ0D5lCMzRw/fX7HX7a3jf4rftR/8IL4m1bwL4g02TwjL4ij1Dw9o13p7W00N3b2zwSie6nDEmcsCuOE6nIr4vpfqdR9mUVHbyNLAGbbuxzg5FSA5FABRRRQAUUUUAFFFFABRRRQADgUUg+9S0AFFFFABRRRQAUUUUAFVZZ2S5kVVzxnnPX246e4zVquC+N37Ovhn9oSyt7TxMfEHkWcnmRf2T4i1DRpAfd7OeJ2/E0AdrFeLJErbo13AHG7pSfa2z/Djqp4wf8Ax6vDJf8AgnD8Lxubd8TpG6/8lQ8T5P1J1CvM/wBpf9lX4Xfs/wDwV8U+LJYvibNHoumSzRxQ/E7xM009wUbyoI1+3HMrybEVf4i4GQcKwB9WTatO0iEMy7nAX5SFYFwOnJOFI54GQT0rajfeit6jNeS/sk/Ba8+B/wCz14T8N6lq19rl/p9nF9pvZ9QuLl5ZZGaaXbLMzTtEskjKgldn8tEDs7Bmb1qNNiKPQYoAdRRRQAUUUUAGeKikYeQ27oc1LUMvyL1Xbg9RmgD5m/bk1eTw5/wrfxdcQyf2b4J8eaZeXvlrmW5guFl06NYlOVLC41O33h2jIjSRlLAYr4p/ZMmZf+DwX9pZf+qQ2fXr/q/DX+Ffdv8AwUD8NQv+xb8QNUj85X8I6cfFyQJKUF3Lpc0erLCRnAWWS0VSxydrkZA4r4D/AGKdUGt/8Hb/AO0VqDL5f2z4OafKi9BhovDBH/oVAH7CAYFFFFAEH2KMSbv4u59ec/0qidDj8/duk+UYXoNvzZbt/FwD7AdDknVqF4OfvN+dNBuUY9FSJsKqhCckY4/Lpn3qK88O2s8TRyRrJGzbjGxLI3XIKngqck4PGTnqARrCEBNvNMe0Ujq3TFFyeU/FnwL8f/Av7Lf/AAdXftGeIviJ4z8M+CdFuvhtZ6fb6hrmrJYQXNz9l8Oyi2M0pRfOMcRbazsShjPUkV+iMv8AwV1/ZXPyt+0d8F/l4+XxjZf0kqt+0/8A8Ecf2bv2zvil/wAJn8TPhbo/ibxM1ulo2oG8u7KaWJNwVZPs8sYkI3sNzhmxtXO1VC8Gf+Db39idjn/hQ+hc+mr6mP8A25qHCL+JfcPkh5/eeiJ/wVy/ZZj+7+0Z8Fef+pxs/wD45Tk/4K2fspkDzP2jPgzIc5+bxhYkAn/tpXnI/wCDb/8AYnP/ADQbQf8Awb6n/wDJNJ/xDe/sTj/mg+g/+DbU/wD5JoSS2QOEOn4no5/4K4/sp4H/ABkd8FV2ggf8VlYDH4ebVpf+CwH7LAUf8ZFfBM+//CZ2P/xyvLz/AMG3v7E5/wCaC6D/AODbUv8A5Jpqf8G3n7Ep/wCaCaB/4NtT/wDkmnqEdEepf8Pf/wBlnH/JxXwT/wDCzsf/AI5UI/4K6fstysSv7RXwVYjPy/8ACX2H8/MrzNv+Db79iXaf+LC6B/4NtT/+SarS/wDBuF+xPk/8WF0HGM5/tfU+P/JmmP3ftI+Sv2jv2gfHnxs+PHxV+KnwZ+LWva5Yabrdr4Z8PS+GbPQ9W0uPTI7Cynma3eWzuGEjXtzKskqzJuNugcgRRqnZXf7N/i744+ENLu/Fvxg+I2oXS20SSBfD3hFZIoztd4dw0bzPLZvvpvw+MNuAFVfgT8NvhN+xH8bPjl4F8Kr4X+HulWHjeGHTdPkvFhuVtl0XR5B++ll86SPzppHUOzBd7YwBgenD45eB2A3eLvC7SOvmFzrNurANyo4kH681yxozjUcuh6VbHQqYb2UY2aPzE/aj+KNv+zl+1P4u0PxF8S/HmpeGfA8lg15Db6H4Wm1nWIJ7GNrVoDcWkcSSR3LXXnzNHJybdFXfvePI8FftY+APjL4/8F+D/A/in4/W+reKPFVhoqvrPhvwlDbxWrSwi73Q29jNcQMscjCKR0ZGYE7SEk2+tX37QWi/C/8A4KW/GrxFH8XPA/w5sfGFvpFlb6lfacmrW15cWWmW0U8bPBNGURhcxoqsWEjqxbcYSW0vjV+3p4L8R2vg+PUP2jPhn4302z8Y+H76bT7fQvs0yRJqNpK0hm+2SMfJ8ov8yjgsGBDMD0e89Oh5PvP0PN7jxF4iv9U1KGzvPiBcw6bqN3pgkFr55lWCcwLMRb+BZU+co52JIzLwGwQak0HUfGtz4s8P+H4bzxVb3Xiy4+xwSX9/DodraN5cs5Mk174HhiAaKB8CN2YsV5JYVc+Df/BQ/wDYv8L+G5LXxt4b8L614ki1XUJLzVpfBS6kNTMmpXs8En2hUfcGSSI4fseAvbatv+Cn/wCwGyrGvgnw7uWfzoyvw7jXzGIA3sqRKrybo4xvcMSM9SSSRuikjN+OXxI+JXwA+JPgvRtX8c6jcXV54x8KWOq2a6xpOvWF/p+pT6u843potlcRXXnaS+JGDkR3WGckvu+pP2D/ANuL4L/C3/goTc33iT4rfDfQYIfBNzoct/e+IrSG0F0uo2JaNpWmCLKWgkdN6o3lxjfGpyT+ffxz/ag+BPx0/aG8D2vwYttL0TTbzxz4B3adZ6R/ZUdzNbXniX7XMYkVVcCO/tFMhBbdKADgEV9gfAP/AIJB/Bj43eL/AIoeLNU+HFjd+D9F8J6qgu2nuoYoNe3RzxtB5cqh2jtzKcriOGSdE2Zxuoo/cbwL4s03x94L0fXtD1Cx1bRdcsodQsL2zlE1veW8qLJHLE4OGjdGDKw4IINbVeT/ALC+kWfhj9ij4Qabptv9l07TvBGiW1rCJDJ5USWECou45LYUAZJJOK9YoAKKKKACiiigAooooAKKKKAADBooooAKKKKACiiigAooooAKay5PSnVHLKYVZj07AdTQA2cssUmPToOtfM/xsuJ/jN+1/wCBfh/G0kmj+C7CTx94gCsVaK6E8cehwTKvDW7zxahdg4/1+iQB8K4L+9av4nNhuby23N8oBB+Y55RQAX34IIAU7gOMg5Hz/wDsN3Mfjv4W3fxWukm+0fG/WY/Hdra5ZUsrOWzgs9NjUOgMVydJs7CSdVkcG5ku2hZonVSAfS1ppscFvGp8xtqkAu+5uTnk9z71eqG2k863jYrt3AEjBGPzAP5gVNQAUUUUAFFFFADS2CfYVxfxi+Mel/BDwTNr2tfaI9PgmjRzDH5jfvGI6V2nXd+VfPP/AAUpjX/hlfUvvDbeW54JGf3hHNAHE/Fb9uP4UfGz4ZeIvB+rr4ouNJ8WaVeaNf20NiEe6triNonUOTwxVjg4wFY8V+Z//BLb9ofUm/4LD+Mv2hPGGi6u2h+MfgtommG/trIrb3N+1pom7ylZs7d2n3HG48Y5r0wIqhflJ8sjJXLtw2c9euOPp7815z+yi7WPwpXSY0ZtL0TWL/QNOt3JP2eystTvbWBYwT80ghiQsOg3dMUAfq9pf/BSr4f6vew2sEevm4uJViTfYrGpLNhed9fQ0Em+NeCpx0PUV+N/gn/kcNGXYrD7bbAHylb+Ie1fsZEvloo56DqMUAWKKKKACgjIoooAaYVanAYFFFABRRRQAUUU0yYzx0oAMZBGDVe6QeUw3Hpg8dqoPrkisy/Izb2VQpwucnaCeSOwJx95lAzmviz4x/8ABcLw78GvDOgeIrj4OfHLXPC/jBfP8P6ho2maVeXOuWZWORb2HThf/wBopbmOaFi89rEYzc26SrE8qKQNOp80/t8/8G5Xiz9q39sv4pfFbS/HHw3sbH4gSWssVpr3hJ9QuNPEOnx2rOsqzDGfLZj8vO4dCBW94Y/4IN/EDw34Ss9Pj1D4AXh02xgs1mk8Gz75zHEqFid/dgTXRn/g5R+HltcW9vffAv8Aaa0Wa+LRQtqPhOysBcTRq0wtYPPvovtFyY1LrDGXlkZiFjcEATXX/By/8P8ASk87UvgV+1JpdhG8e+81HwdYWdnCskoSNprqTUFhgXcTl5GCFU3blDA0FOV1YwIv+CIXjq6uyyXvwFbySVijPg26yFEu4O6tMAXbYFDBCoVQQPmJPD/tG/8ABLTxn+zn8D/Ffjq+/wCFE6jB4S0qfVZYLXwncQmTylGY0HmH5mUYHDH5fur0rjNI/wCCnPwE+Mnxj+JnxA8cfsl/HX4kaX4w1OxvfD9/N8NrPVYYLJNKsrXZ57TtAFnkgnkjaN5EdJFbehJq34X/AOCnP7E/iRI7rw3+xn8VPE9jB5MkN/4a8A6VqkELSxpcRoslpfOkM/kypviLrLG25ZIkYFQEx0Vj2af/AIIX+PdReOX7b+z7JsYPH5ng24lU4UquMyYwBtxgCg/8ELfiDHGoS+/Z9j2rtP8AxRVx25UHEnT9fevdvgB/wV4k/aV8D3mveC/2c/2htUtNJ1CXSbgahbeH9FlhuoRA0kJt7vVkmUhZY3AK/dLckqTXWeIP+Cj+ueH/ALcbr4A/F3T205Ge6N1rHg6E2qHHlyyo+vKUjdjhSxUMTjK9SpSsrsmUlFXZ+cPw+/4NTfGnhfxd4Jn1D4ofDfTIfCGuWGrNd6D4Rkt9UmW2Y7MTNIULBiTzHgnkgmv1cvvgV4Z/Z8/Y48SeFfDNj9j0bQ/D1+IUbczPI8MzyyNuJO6R3dmz1Ln2x4r8R/8AgrY3ww8C+IvEWufAn4xWug+F4mu9Zmg1LwtdyaTEhwzSQ2+tyTNtkDblVN4GSE+X5vpz4j6bfeN/hV4i0mzmtxdaxplzp6tMdsUUskLqu9gXxtyNxG7JPalGSkroqOseZFP9jc7v2Q/hWF6f8IfpAPH/AE5Q16arZr5K+EH7aXh/9nP4U+GPCHxI0/xl8ObrwboNrp+oaprXh26l8O2q29vHGtxLrNusmmxQzBCyfaLmCUb41eJJGKD6d8Oa8muhZopoZoJo1ljkilEkcwZVbch7r82Acc9aoDZooooAKKKKACiiigAooooAKKKKACiiigAooooAKKKaX5oAUcCq902UPyncvINJNeeU+3Kru9ay7rxItus0jMPLUEgBTyBnnPvggDGSR7isalSMd2OMXLVHz/8Atw3P/CzW8KfCFUWa1+LWpS6Xr8a4dRoKW8r6oHjUbnjnQx2LtG0ckTapBJvyo2/REfh+z2wssKqY8spUAckYPTg5465GQD1AI+efgR5Pxg/aO+IXxCYxyWOkzv4E0eGKRtx+yTS/bZwox5bS3DFWIJDw2luxyVyfpO0H7lV6bQBj/wDVxW100rGNOV29SeNBHGqr0UYFOoHSig1CiiigCGS7Ecm2nPcqg5qvfJtmD+lJL/pbKvYgE4oAsxzK8Zbt1rwX/gohZ/23+zLqUEeV3XluMn/roa9sWTy7ZkX+8Vrxv9vS4+yfs2XDSfd+2Qg/g5xQB+bT6fM2pfYW2+YrE8ZXP5GsHQ/hHL8LNX8UXH2jzrfxdqK6tbW8UfGntHbwpNEvzfK0kkRkz1LTsTnPHojaWq+M5pgv7uKPeSaZraR69oUMkaoWacyEhBnJAAbp1AC/98igCp4S8L3Fr4o0OR5EVWvbYkYIx8w6DNfr3FLvkVewUc+tfkrPfbPGWgwI23Ze2wCr0A3Cv1eilaF2XjdigC9HfJJJt70NdhZdvviqaRbDHIeMgZqSL97fN/dHNAF4HIqGa8WKVU/iapA4xVfUFDJuH3loAknuDCwHHNDXPlR7mqjbMbidd3VauysIx81ACJqUb1I022Pd2qpM26ElY9uOh9afAf8AQG75FAEi6jEV+9TXvlKMd2OOB3P0qO0t45bfcVXNR29svnyb+Vxx7CgD5D/4KR/tM6h8OvC9r4T8OXyw+JPEV3AblotRezu4NOE6Ge3hkRWZby6h8yGA7oPIBnuTcQxxEH4p8ef8E3fhF8Q/A/huL4oaB4o+KmuaPZy3P9l+GdQ13VNH8Li6n3Nb6fbWMjpZ2qEmKEeVH+7tVXzHZPMPt3xa/wCCb3ij4qfFL4kTeKvhLp/jy38ReI768065n8XyW0cmnzSZjRoTmNXEOF4XOMqSRkVk/Bz/AIJyeI/hL4TuNG0X4AReDdJuJpbpbDTfiW9vbSSyLsdiiOAN8eUbgEqxB7YAPBf2Vv8Agm/+xj+1D8GJvEngjQZP+ET1xjDIt94g1rRzqyxMjmMxtcBpIFnjV42bB4DLtLNna8b/APBJL9jr4C+F7zxNq1np+j2ui2jme6s/F2pPeFZFaOQIiXLSyPJG6xhANznhiy4Udh8PP+CM2k+AZLySy/ZZ8J6bqEyKh8nxzu84L6sWJ5PJIO49zmsUf8EQrX+3k1Vf2R/B66os/wBqe8/4WATMZe0mS/3geQex5oA8r0n/AIJvfsZ618T/AAv4N1X4T+MPCmteKLO6vtOi16213RbUpEI5biYG7lEcaKDCu7PHm26ZAIY9B+1p/wAErv2X/C2i3mrXXgv/AISzxb4ovZZEmi8T61qVy891JFE11dziWeQq108O6WZGDFmWJZN6yD2U/wDBKbUvFfiz+3PE37PNnqmqQwNa215qPxOlupxExLOu53JILMzH1LEnJJzW1/8A4JR61rU1xaw/s16YNPa5e4RIviP5MM6kOqb41cLIwWR8O4L/ADYLYChQD4Y+G9j8WP2Ox4b+DevafqWjjWp7u38K6lo3xt1DTRZ2iEKZY9LtdQMaTO0iyRwJN887y9VbzYfv34d/stHwp8FYrj4ifFv4hX3iTTNL+060+m/E7X7dQI48EfZrS9DNviUM7lTPIctvfcsRyfBv/BIhtN1C+uLj9mfQ7Fbqc3bAfEDzFM+wp5uwNhZAGb51w43EbsYAx/il/wAEnvGmt+G9Wbwr+z7ovh3xILK6XQtUT4gtFFZ3rrJ5d0EV8ZWQxS/MDuaNC27FG+jE4p6M4340fD3xT4g+FnxG+G+i3XxK1zVfjOyaV4f8NeJfEd/q1wscVrPDAZ/7QuX+zzPdXF480YnykFtp8k628sc0Z/Q79qr9vfQ/gHBq+l+G9D1fx54+0+W3t20PRreSRtNluZUKtevGrGFHVtwXZ5sqxNtDbg1ea+Ivh9dfsF/sg6141s10/VPi/wCIRpXhS21sxRtb6XealqFnptosYZlH2SGa7hdkVkEqQ5OA0YTI+F3gbRfhH8JbPSNDmvtQ0vRbOW2e4uZ3v3nKKiXDTTFiJJ2SMKd24H7O6ksGXCjFJWQ1orHy18T/AINr/wAFAvjbJ4g179kP4a+F/Hlspki8VXOrX1jM0j+XI7XEV1oD6fczrl033dtPwPk2EBh9gf8ABMr4mftLa5+0p4s8LfES08E33wd8K6XcWOka9bXkV1rV3qsc9qJLcyQw2kL20Ra8jAjsoxGYkQs20NJT+C/hLV/irf6t4Z02/wBQFu1066nezBFk0yF9xEKFlDNNKrcDZIFADNICdtfa3wz+Gmk/Cvw1aaVotu1nY2kflpCrHYSTlnIPV2bLMx+ZmYkkk0wOmooooAKKKKACiiigAooooAKKKKACiiigAooooAM8VXeRg7fL8uMj61MP4qhmXzUZd+3jtUTv0A+cf24f2wW/Zv8ADlpHDbNdalqonFqvzAAooJz8nTJUderCvzr+LX/BQf4ueCdJ1LXLDxNeQ6pNLFbadbqqvbmabC5VCMsIxzkn/lnnjmvor/grh4T1Cz+Img6008xsbq2exRHGYYZFLSgqccO/BbOcrDgYPNfGd/4btdensZ7iGSa609y9luUhYzjGV5xnrjOfvGv5i404tzDD5yqTbjCL08z+qPDPgnKcdk6qV0pTlv5H3f8A8E9P2uLHT/h9pvg1vDt9DHotrHNJc6aGu2lBlcvP5OWnkaR3BkKCTZ5uG2AYH2N4Y+JVj4m0OG80m4s7+zkyglt5lkAZWIZBgldyqj5G/grxuyK/PD/glH4LuNd/aF1bUGht7ixttOKXW8LIYXeWN4I2TGWYbZjuyQogQADPP3l4o+B2k61rLatZSSaHrTI3n6hZy4kvBwALiFlaK6XKjBmDFf4StfrXBWc4zG4BYitve2vY/FfEPKcBgc4lhsErRS6dz0lL7EUfy53KDx/n+lTrL5i+9eUwfEnxB8PWW38Uaet1p8Y2nWdPWSVVxwTNAcyRj1kVpUH8TLXYaB4+0/W7CO6s7m0urSb7k0VwJEkJ7Ky/K3/ASffFfeU8VF6S3PhXSklc6gScU6qNteCdV3fLIVDEY6fkSPyJq1HJujH0rp5l0MxtynmQtn8KjsINind97GKsbgadTAzxZv8AaP8AZ3Zrw3/gpI/lfst6j94Yv7bkf75r6AfhW2/e615f+0x8Gn/aE+Gd14WTVl0ma6lin8424ucbDnGwOhH1JoA/NO/8ZWs1nIFfbcyJgjacVD4Q121tLJre4mX72R8vQ1oftfab8Lf2VbC+j/4XV4J8QeJdHvIrC90CKWKHULFSPmeSNZZZB9SigdzXz1b/ALY/gfzLeOTxN4bhjZSZZzqsLLHghSeDyASc0Ae56Ve/b/iJYTphkF/Ftz7SgCv10ns3F0uPm4wa+B/gf+xx4D+NGoyX3gT41eGfGTaDJE15DpFul59nk3ghXMc5Iztk5IHToOlfoMF3gNlvXpigCO4tt1uqf3R1pLGDyi35VZooAq7ZfP2/Lsz1pLmGR5l6bRVtRtFAGBQBRuLcpIpXhh6VJcQtcQDH3sc1ZK5NLQBTEE/kCNtpGMU8QOlptGOlWaKAK9lEyW+0/eqG2gkSd24wT3q7t+bNG35s0AZtzpim5XCnaCTjPGTnn9TVmazU2hVSyg8nmrVAGBQBRsrFkZt25VY54duf1p1xZN8qxtJt6n943+NXKKAKr2Ilh537v4cOeP1qFLKRFC/Lx6ir+33NLQBXFqXhO4ybj6OR/I1T/sfcGH3fMIZsEjcR0JPXPetPb7mloA4f4s/ALwn8e/AOoeF/Gei2PiDw/qhhN3YXQPlTtDLHNEx2kEMkkUbBgQQUX0Feav8A8Ex/gPLb/ZW+FPg1rfcXZBYhVdi24lgMAktySeSSeeTX0AYwWzS7fn3UAcP8O/gf4e+EPg+x8OeF9KtdD0HT4WhtrC1Xbbwqzb2wvIyXyxJzuJOcjiu1hj8lVUelSUUAFFFFABRRRQAUUUUAFFFFABRRRQAUUUUAFFFFABiq8oxuwBVjNRP8pb3qeazuJnlP7THwrsfip8L9Xsby1jmdbaUwsVBMUnlMA65BAYLI4z7185eEf+CWnhHxV/Z+t/2nqX9k6haRXMdnx/GgYYfGO/TFfZniWw/tPRLy3DbfOhdNw/hO01xnwImjvPhPowVSi2ULae7AD5/szSQEjPr5QOfevjc34ZwGNxKliqd3ufTZXxNj8BhXSwtRxXU8t+GfwH0/4V6lqHh/QZJtB1LSUGoWc8KKrXdu5IVJmP3gkseXRfmwyAEbjn1bwz8RpJb4af4gtG0+8k+S3LusltqYHBMT5VcHGcMFPzr171Pi74Zvp9FtdU02ESav4euPtlkgAPmOA48sbs/6yNihP99o2/hIOhpA0n4reErO6ZYdU07VLeK9tm+y/fiZRtcbsncGKHDcqAAckEn0cLhfq0FCCStokux5mIxlTFy9tWd2+p1cNpGlsVhUbsLhkBj3jHtjHHpz2rmNe+C+k3d9NqGn282j6pc8S31gfIlYjp5mwjzF9nBrPs9c1L4Vtb2959q1jRpHKpcwoXls1P3d/wDeXGPmAHrXbafqEeo2yyRyQyLMAUYAMGHruHr7816cJKqvZz0OPWHvR1OBXxZ4o8BOserWbeILEci809dkkYHXfCdzNjuU/ELXXeEvibpvi+FW0+6huTgEog/eJ/vLnj65Na50mJ/m2j5hyP7w9/XHYHgVzfib4MaVrk32iPzrDUYz5iXVsfLbP+0ejfjRy1afux2QRnCp709GdcZt+3b9T6fganE3yivL21jxl4Ido7ixXxFp0ZLPPazrHdIPeJhh/qrDPoK2/Cnxa0vxjNNDaXUa3lqqtc2MqGO7tAwyPNjbDR5/hLfK45VmGK2p4pPSRMqPLqjswzGTO2o3gAjbd5nUty5OD/PHt0qvBfb1RdwaZhkqjZ2+vUAn8hU8k5SH5VLbs4Iro5la5mfyuf8ABVjQbrxh/wAFK/jtqUfjDRdJ03R/FV0niCSWwvJW8KQOFjtJpGRczC4kOBHAsxTcAwUAmvn0fDbxRpF1NJ4g8TaT4fh0Ek+Mmm0Oa4/4Q5LgYsA6Qs5uPtfyECHd5Rb58YNfT3/BXr9l211P/gpZ8YtSmtIYZNQ8QPfebHp97cyunXcDDFIA/A+YDOCa+bR+ytpayKv2G3TyyxCNomsnyQf7u62yvv696FK4dLn6+f8ABqXa614N034+eH/EU1pb+JLG40KfVdOEEirpVzL/AGmY4HLPiYtEsU2UIX5tnBGa/aK1P+jx+m0Y6entx+Vfj7/war/BmP4TfDn4zXEdstnbapf6QUkgtrmNneOG43AiWNWUESKAMjbzjb2/YSEYhX73QdTk/nVASUUUUAFFFFABRRRQAUUUUAFFFFABRRRQAUUUUAFFFFABRRRQAUUUUAFFFFABRRRQAUUUUAFFFFABRRRQAUUUUAFFFFABRRRQAY5qGXrU1NePdUyV1YmSuindxKbZo+B5gbr05rz34CN5ena1pqqFt9H1me1iJP3gT5jE+5Mrfp759InhWaJlbnivM/hhH/ZfxJ8YaasYWP7VBeg55JmjKsT/AMBgyPcn2A5cRZTjI6KOtNxO9k05bi1YSbvmjKMo4yD1H8/fn6V5n4b874ZfFm701m8nSfE2+/tdz/u7e5iWJJ488BFeMwzIox8yXOfl2CvW1ImX5jnjGR3rjfiX4JXxh4Vu7NGZLrd51u7D5o54pUmhkDDGCrRoV7cc5qK0eWXtYiot2cOjN57OO9s2j+8mw7QwPGeoIGPy7e1eft4W1L4eNPceG47FbWbdPe6ZOzL9pAyXeB2cLEwPJ3lgc/wcVvfDXxjdeL/CNjM0ax3XEN5Bnb5MisEdSOoOQzDJ6bB/FmujfSYdTt42Zdyrh1/2SMEEDoD6N94ZOCKTiq0efZkc0qb5Hsc94G+Kdv480jztOaRpIZXgmiuIHhntnVQ22aJwsiHBBBK4dSrrlWTd10RW5h+YEbuSGbIrgvHPw3GvauupWNxdabqloNwuFnPlPs4SO5jJKSRHllJUtGzMybSSS/wh8VZzfwaP4gt7fTtduFLQJDN51reqP44ZSFDeu1tpHvRTxE/hqLQJU4v3onbzaTHOFLKrbQNoPzAfQHOPqOa5/wAX/CjR/GCxtdW8n2i1ZntrmF3huLNm5ZopUIeNmP3ipBb+LIroLa78+OP+JmGSQCqgewPNWB+9t1Kt94AgjjNbSw9OaumHM4nlU9x40+GVx8sMnjLR1YlUV4rfU7VR1I+5DMuP4P3TDoN9bvgn406T4+jmXS7oNcWLiK4s7mNobi0kK7vLmjbEiMFwclNoDAgsBz1s2nQzI3mKGYghgOS/17/hmvmf9tzQbPx5aeHfA+m6PY3HijxxcHS7W9a3hln0nT9u/UJEVx8qm3jdBHlVlcYDK20vj7GpT1hqbRqU5aSPhf4o/wDBEK3/AOCj3xk8XfGTw78ZdW8P6L441i6utP0+58LpOs0UcrxebHIL0OYHZWVA8UbnAYqudgrn/g071ERMq/tBN8yg5/4Q18/+l9fpZoumeKfhjYrb2KW+taTCiqlm7JBNZxqAg8plAglhXb/EkTRg5bexrrPCHxl03xC9xbwpHDdWahZbOceRdW+ThN8WDtU/wsCfMAygbpWlPEa2mTUppax2Pjj/AIJU/sXQ/wDBMX4ueNvhneeNNU8aat400+DxFp88mhCxt2gtC0NysLJdXW5kkuYA6zLbtiSPZ5oWVk/Qe3k82BWXaVZQRjpXhv7TPwwvfGWjeH/EGiszeKPAOq/27YK5ctcgI6z2yKzbI2uIDPbK5RjH5u6Mo4V17r4JfGCx+M/wv0PxRpYkWz1q1jn8uTh7V8lZYJBgYkiZXRhgcr0FdUZJ7GXKzvKKj3t/s07fRzCHUU3zKcDkVQBRRRQAUUUUAFFFFABRRRQAUUUUAFFFFABRRRQAUUUUAFFFFABRRRQAUUUUAFFFFABRRRQAUUUUAFFFFABRRRQAUUUUAQ3DbQf9oYrzHTV/sf8AaO1CGP8A5i2kwXTg9d0UjR4H/AST9TXp8se9BXmfjz/QPjp4Rkj+RriO6DyDqyIq4Q/VmP4CuLF6JSfRm1Hqj0W1UbeOlR3dgsm4ZbbIPm57+tS2fCrj0709ZPM3L74reNnH1MeZJ6nleuW7/Dv4p/2lH+70XxBttr9c4VbgsywOfTdkoT7A9hXpVpdtLbt/FtwA2PvnuazfGfg628T6DfWU27bfRkdR98DCt9RgD/6/NYvwq8VSanpLWN26LqmlzSW9ypONxViFf6MBn8a44xVOprsbVPfjc7A2kdwVbaMxvvXIHBxisrxB4Is/E+lyWN4v2i1ZVJD4Lbx0fdjO4dc5rbUEwbtvJGeKFjBT612TiqnuPYxjJpI8zfVdW+Gd5HBqEk2qaKGyupSSD7RaH+7IAOUHTdjmu30nxJb6pbRyW0kcyXCeZC0Z3LKuMghhwAexPar15pMN3BMskcbrMpRwyg719/pXm134E1L4dvJeeG3a6sVdmudGkcQwz5P3o3x+7f2OVbsEHA4ZRqULRjrE6OaM1Z7ndjWGmXy2WNW4EgZ/mUnBKqRgN8p6g8d8V4B+zGg+M/xO8S/Fy485bO+kfw54QMsW4waVbyKJ7pMNhftd4qsSNwkjt7aQfK5xT/aW+KzfETQdN+HPhi8utH8YfEa9XRLgwSJHqXhazERn1O9eMNIYSlqAsb+UY2nntAzsk6tXv/hD4caP4P8ADGj6XpNnDpul6DbJbaZawKFi0+JIzFGkY7KkZKKOgXjGK9CjKLje+pzyptOzLtx4fh1K1xII8SL90Krqp65GV5wfUYPp0AoeJ/hboviy3h+2W0jTWoYQTxzPHPDu67ZAdwB7rna38QNdLGq+X937owM80BKmpCMkEZNK6PJ5vCfivwPdM2l31vr1rbE7Le9yt3FG2CyLPkKV4B27cgjgivK/hB8RI/gb+01ceCfsepWHh34iSX2s2MN5ASum6ijRvdQrIDjZOjSTICNxbPJzivqqa2V1b6fdwMV5J+0r+zvp/wAfPhtqei3En9n3igXWk6iu5JNLv1GYblZEcH5XXG05HIyCOK5fZzi7xOqNSDVpHpzap97E0beWAX4OFz05/wA59quxsxi+bG7HPGK+Yf2cvG3izxb8KtL1rT5lNxYvPp2saLrExxa6lA7208MF1tUEx3MbK5aOZCwZFcMrlfVtP/aD0ePUbTS9WZvDes3kq20Wn6q6QTzTMNyRxEsUuWK8kW7SqvdhWn1rpJGcsPZ3i9z0pGymeN2alC5Fc4niiD7U0O/95DtLpGrSyR56F1UfKD2J59hW+k5ZB8vJGa6KclJXRnKLTsS0VHvb/ZqQHIrQkKKKKACiiigAooooAKKKKACiiigAooooAKKKKACiiigAooooAKKKKACiiigAooooAKKKKACiiigAooooAKKKKAGt9xq8x+OsTQan4PvFG1YNegSaQfeWJ0kVh9CxT8hXprnCt+deaftCGSf4b3kkKyNJFLbOMf8ALPFynzfkrfhXHjIuVPQ2w+k7noNjvAVW2/Kozj1qdY8HNZ+h3H2mCORW3q8SlW/vZFaix/LWlGSlTVjGUfedyG4j3Ke+0ZGe1eW+PbhvB/jmz8QRptswxtdWIXasEbAlJnPZQwUZ7iTPGxs+rOmUb8qw9T8MW+rR3Mc0JuIbqN4ZY5DlJI3AVkI7ggHr03NjGajFU+alpuaU6lnZlqy1NblV8qTzPMAwDxgkZH4YrSj+eIN7Zry34RapceHFuvB91NJ9s8Ot9ltJHOZL+zCIYJskcsoYRSH/AJ6IxwAwA9SgkV4Bt9KrC1G4JPcKlNRd0I0f7tuWrmtX1hoFmWeF1WMkZKlsocgMduVVTg8kgYA3Fdwrpzwjf/qr5k/bEjj+M/iLQfg3BG0tr48eWTxOsahfs3h2F45L7zCMFUu5PKsSpKlkvZZ1aT7MUrp8mZrR3Of+A+kXnx41zVfi9Z3F5pNj4yttNtPh/bMu2NNAgiaeK7nshJ8kt1dXV1KEJjlW3hsRIttPBIU928H/ABOvhe2+h69arY+ImTcAquLS+AHLws2W56mNsyJnkMv7w9jaaNGIYWi8yONUXCFQpAAIxyMrwccYP61T8U+C7LxVo8lneReZbsQ2C5BVhyHVh8ysDzlSDnnua4amH9nL2lNm3tnNpSNSG/VtsedsjKGwV/8Ar/1qzE24D6dq8vi1zVPhE8kesXK3nh1dvlaizbp7bPRHULyvbIAru9K8TQ6pbwzWzR3EMyB43Q5jlUjIKv3/ACqqdbm1nuEqb3ibOz581Sm02Hy5dsa/MxcrgYLEYJweDVmO48z+70zkdDQrGQHIPzV1R7sxejsfMvxB0+T4DftT6L4qieODw18U54PDHiIqAqwashlOmXzcqqeYpbT5JJDIZ3OmQIsaqS3uF7odj4k0qS1vLNby3vLfZLHNbhoyj/MVKNkYGehzj9ah+Kfwu0T4r+ENS0HXtNtdS0vVIwlxbzqWX5SrLIMEHejRxsrKVdGRWRlYBh5j+x/8TvEGr+BtU8H+Mrxrrx18Nb0+H9Yu7oqk3iBYxE9rqeFAVVurSWGRyqhFuHuIgF8ggxUipJFax2NyT4b6l4AuPs/hnUWk023cznR9WzPaqM/L9nlciSDjAwBLEn3VjUAAdDoPxmhe+t7HXo28O6nMAEgvX2+a3cRvjZJz/dbd6oh4HZ2ukxw5k+bzGyeh2gnrhTnbnuB175PNVNU8G2Go6LNZ3FnbyW8g5SVA6Y7cHpjtjkdq5XRnF3pmntbq0i7HqyuEz5g3HH3eT7genvVyK43Lz1XjivJ7f4b614Hlkk8K6orWYkzNpN67zW554KS8PH9CXA961rL42HQ5Gt/EenNoNwjBFllJktZ+wKzAAc+4q4Yhx0qA6b3R6IZNxFSE4rGsvEC3ojaPy2WQZRlbdHKf9lxx+Y5rTjlMi811RqRlsZuLTsyaignAoqiQooooAKKKKACiiigAooooAKKKKACiiigAooooAKKKKACiiigAooooAKKKKACiiigAooooAKKKKAI3GVP5VxvxetJr/wCHHiK2tRuuJNOmEeR/EYXC/wDj3P1rtG+41ZOp2nmwTKvzMyjIP8XLED6EnB9qxxH8NmlKVpowvhXrS33w+0WaM7h9ijwT3O0KP1rs1OFry/8AZr+f4RaXYzf8fWmlrO4HpLBMVYfTcDXqC+lZYP4B1/4jtsNIyTVN49xZcqp7Hn1P9MValcxD+Fup5O2vH/2l/wBp2x/Z88MpM8P9t6/rXmQ6HoVrOBcarMkYMuGwfLihGHlcq21OVDuyRN1mXVM4n9sL9oPSf2fD4T1qeC71Txl9rlj03w/papJf63aAqmobFleNVjijeK4MkkiRiWO1i3hp4xNir/wVf0m2LBvg78bdy5yDpWn849P9Mrx3w1p+pzeKNU8VeKtQt9e8aeJI7f8AtS+jU20MQ3ACzgi+ZoraDDGGIu+2R5JXaWZmlO3AyxoNw3fLhTtCKv046enFYU6PLNtGlSSex2+of8FcdJsLKa4vPhL8YrW0jj86WSaw0xUt4tpdpXP28bVjRXdgeQqg/wAQryX9nX/go1Bf+LPF3xEvvg78b7vWPGl15elCLStOlEOhWzqtiiA3y7Q7zmYqzZEt9IFOAa84/bD8f6Zp1hpPgfUtcs9B03xNsvdf1G8u/sUFnpETqJGeWUiKPz5AkCM7rHKG2ZQkV3/g+4+IXxMhtdP8A/CPXr2xkh8ux1fxHLB4e0FFCKrrPDM0uroAsTmKVdOmiklMJjIib7TW5me1Q/8ABWLTyjGT4O/G5fJjEk6DSdPJiAmMTFj9tAIJ2nI4waB/wVi0ufyY/wDhTvxoZrhPMUDT9M4HXjdfIW+qBhXG6V+xT8cvGGmQ3Gt+OPAHg23vG8m60rQNAuNavbOEkRs9tq1zcQW++SKMy7pNPKRSS4EcwjCzdhY/8ErpLyVY9a+O3xo1zTZiDe2Tvo+mC8A6Dz7HTre7hP8A1wnjJ75pNXAbd/8ABUzR3txu+DPx2VJBgK2jabIMHqD/AKeQRXEt/wAFC5PBVy1/4Z+DnxquIbq52No1zplikKjgs8LC8PlHncQQ429B3r1dP+CSHwjBLLffF75uR/xdHxHx/wCTtVz/AMEkfhKrsy6h8XEkbO5x8UPEW4nbt3Z+2ZBCjHGBWFTDp6o0p13DR9TCl/4KxaTDe31hD8L/AIwXtxZvcKrWumWDpIYZjDuAW7aQRSFS8TlAGRSe3N+H/gq1ZFkX/hSvx2zNkRhNFsJZHI6jYl6xQjuJNhHSoPEv/BJH4bv4evbbSNa+K2l3E0axCcfEfXLqRQtxHOuPNun24MUajHRFIH3mJ4XRP2A7JvEk3h/Svid8aPAMMMW2K1a/0zXrW7CYDzx3WqWl7PnuYZZvMGchNuHPP7aSkoPY0qU4cvNF6ncN/wAFWNNdmVvg38bvMkykW3TNPO9jtUgf6b8pBZM5wcufQ14v8eP2/ofD/wAUvBvxU0v4T/GaGXwql3pnidZtJsFjv9EuuJY3C3hYyQ3MdvcxDDsRDPHz57yxdvrf7DXxj8Km5bwr8UvCvirTrH57Wx8V+FPJ1LVCmVNrPqFncw21sshLIsq6dKYhuYxysnlHkPFlz8SvhTHdN44+C/jD7Fb+UL7XPBzweJtHBbHlrawRPDrMvDxea66api2SgEwIbg9z8jnjdq7PW7f/AIK6aXfaVBqFv8IfjVJYXFoLuOaPS9PmVkKGRGXbekujqUKyYEfzDMmSBWjJ/wAFWtKhldW+DHx23KSGH9kaaRn/AMDq+Q/2RvidoPhu31HwDp+qWl5b6HNc3nh6ZZVWWO0EkQmtrqIeW9jeWE0gga0lSJ4ozZxCMMk6j3W6i+z+Z+7VVjeRNxjTAKrnGAOOe1HLfcmR36f8FVtGjl3f8Kd+PHfKnSdOI+n/AB/cY9qr33/BT7QdWDQ3HwX+OUkci4kWXSNNkSRfcNekflg1wotUYZyvPP3B/hTmUsuGWMKowp8pWz/vHHyj3NTKmpaMfK46otS/t96fomoPP4V+Ffxu0uW4GVtJ9M09rKTkqAy/bSVO4HlSOMVvSf8ABXnT/C3hbwjca98LPihY6x4x1aPRbHS0tbSWdriaYpArEXGFaSNWl7qiqxkeNQXHn/jrxnb+BdJhkmtbq5urp/s9jaaXEJ7nVbl1/d28Ea4a4csGZEUoSokclY42kr3b9lX9libwVfzeNvHUWm3nj7UAYYraAi4s/DltLsZLC1Yghm+RPPuMhrh4k3bYordIsVRcXeJ0qqnG0j6Rtb+R1jEkLRswGQSMj64JH5E1dByKpWNkltDHg+YyqBv/AL3v6flV0DAro6amMrdAoooqiQooooAKKKKACiiigAooooAKKKKACiiigAooooAKKKKACiiigAooooAKKKKACiiigAooooAa33GrPmiCs33ixXg+nOa0G+41VHXzEb6YrGvFum7Dj8SPPPgQfsWo+KNP+9NYa3ePKD/03kFwh/75l/lXoP2yZY87Y92cKC3UbQeT25zXnHgy6/sX41+MNPLbpby2ttYOBjCENbAE9v8Aj1Jz3yT7VyX7Un7WjfBqKDw/oUdrrHj7xDC8ul2SnzIrG33FFvbn7pEatnbkp5jAIrHDyLjg2uSxtW3uaP7Sf7ZOi/Ab+z9Jht9Q17xhr6THSdFsLaR5ZVVAxuJm2lYbRCcvcOQo+6NzHA+X/D+i6nq/iq88WeKro6v4v18N5l3HAyw2sBOFs4I9yvBHEuGVshy/zkluad4P8NjQdQ1K81C8vNY13XpUn1jU5mZZ9Tnb7ucH5I40wREuI1POM81pxL5Qk/1bNMcyOFGZfkCdfTjP1rsMBY8xqrSFm2jK/MRt9OAccHJHbJp0e0zA5bJ+coxzuHPGTxyRxTRwe2PTHApM7js/hbG4f3sNuGfpn8qAMb/gl18HPBfx18S+KvjX4u8N6TcfE/T/ABFeeHbWG9t5Zh4UtbaRIolginXbFJMXjneaIqXDKFcohB/QIacskMe/zvMZQDiQnGRzyO/+0OfTFfnTbfCWXwh451Dxh4A1m78B+MtUeKXUNSsE8611h4XdY11CzxtuI1jfbldjg4Jc4FeqeFf+Ci/jj4b262fj74b6hqS2gEH9q+ESLyOY4+Q/ZZChAK8krMRzwKAPsOPw9bxMzbdrMd29RtfIyAdw+bocdenHc5ux2sccaqq7VUcAcAfhXzV4M/4Kn/B/xhc29rJ4ytfD99Im6a3122l01bGRV3SwTTzKlukq/wCr2CVsPxlh19b+Gn7SngX4yTSw+D/G/g3xhcWo3XKaLrNveNEPUiJ3A/E0Ad8I6jNvyaaly0iKyqWVhkELkEfnQZHb+GT/AL5/+vQG+5GbWMlvlX3I71h+MPh7pfjTSjb6lawXUKssyJNGJFikX7sihgQHXswGQeRzzW7JIY4i2Dx1zj/GuI+Iv7RPgX4UuLfxZ408KeEppV3RR6zq9rZNMOxXzJF6+9ZyoxkrMI+6+aJinV9Q+GV8razu1nS1bZbXMFs3n2kZ4UXGSS8Y6mbgbuSCcY7GCCGe3RrWSERyKHglXa3vvVsEE/d574TORkHxfxl/wUW+BfhSeG1uviJpOpTXURaMaMJNXi5XhHltlliVm6BHkCn0714hJ+2v4s/tiSb4V/DnULPR7i2ke4n8Z3a6XbW9x5EkiMtshlmSMyLCC+f4nwgELFuf95R03R0xcaj97RnQf8FRvg9oumeApvjboNj4f8NfFDwHd2S2fiSS0ja8u7JbpY5LKWVJFd1lhmkEUb7vLZixXJrAsWZo9scYht40DsUgMi4aNtzBAQednQY2ZwQcVzlnd678W/Glt4i8e+KpvEV9bySmDSY4JbHTNIZkCb4rQje8gwB5szP0yADWl460O88aeF7q0t9U1HR765jDR6mn72eC6LI5wu7c0fykHPzEM2Tk5rop1FKNzKpTkpWsaxl875l8ssx5Rf3gT3Ljt74rH8WePbfwfJbW8em65rWrao5j07T9Hs/tl3fFf9YYotwLRoAXaVsIoIBG4HPmLan8XvAHjjRdDt9U8O/FK+8SXjWtja/ZpNK1a7bzIxI6CMvFFa2scqvPNLnaqMoVpSkLez/sw/EXQv2Z7NdY+LXhnxd4X+IWubLfVvEmo6Zv06KRSCthp89s8221R9xVpBEtxGryytnK1ry6XJkew/sq/sjTeDvEH/CceNo7a48dXitFFbK/mWvhu0kVQ9tE3QzPtUSzJjzCgVQkIWJfoYaHCzSN826YgybThXbGMkD5ST0JxyODxgVy/wAOviXofxU0ddW8N6xoOuaPJM0f2nTL2O+h8xVy6B4nKbkbqFLemARmugi1y4Zf9UzMrlMKN4455KjIz0+7jIPOKRJsRQrCiqo2qowAOgFSVXt7tpUXKHdjnHTNWKACiiigAooooAKKKKACiikINAC0UUUAFFHNHNABRRRj/OKACiiigAooooAKKKKACiiigAooooAKKKKACiiigBrDJ+tV7kbY2AqwxwRUckCybvm6mplG6sGqd0fFX7d/7dPh/wDYv+Je2TxP4L0/xh4u0pYLKDxBrVnp1vpvkSy+VeXCSTpLJbgXEhVF2mWSHbviRzLH83eEf2xvgfoE2q3l18dPhhrGva9ObrWdZufGNjJPrL+WIwXYMCEVAFRFwqIAigIAtfqsnhm1F15m1d24uvyjKEkliDjI3Z5wffqSTai0K0hVVWGP5fasaNBU22jSpU5j8t4v29fgaEG34zfCtPkZV2+K7AbNyhSR8/UAcdvanH9vD4Hk/L8Yvhaq9gPFNjgD2/e1+pR0y3J/494f++BSf2Pa/wDPvB/37X/CugzPy1/4bv8Agf8A9Fj+F3/hUWP/AMdpB+3d8EA2f+Fx/C7/AMKix/8AjtfqX/Y9r/z7wf8Aftf8KP7Htf8An3g/79r/AIUAflqf27/gj5jOPjL8MFkbOXXxTYqxO0IDkTfwqMDHXvmkn/br+B0yBV+MXwuhQchI/FViFB7EDzsAjpkc1+pf9j2v/PvB/wB+1/wpP7Htf+feH/v2v+FAH5X337c/wF1oSQ33xe+FF3HMf3sc/iqzkD7TlckyE8EA9f4RnPfkvFnxn/ZX8epD/avjr4LXTQ8q6+IrGFsdgWjlUkD3r9fV0i1TpDH37Uo0m1/594PxjH+FAH4xv4l/Y8Zzu8ZfBYtnknxXacn/AL/0n/CS/sd/9Dj8Ff8Awq7T/wCP1+zh0OzP/Lrbf9+l/wAKT+w7T/n1tv8Av0v+FAH4zJr37HI/5m34LnP/AFNFpz/5Hre8KfGb9lPwRFImm+OvgpbrJ13+IbCZl9lZ5SVHsCMV+vg0a0H/AC62/wD36X/Cj+xbP/n1t/8Av0v+FAH5V6L+2V+z74ds5Lew+K3whs7eUfPFF4lsFjkbOQzKJcMw9WBNaSft5/A+acO3xq+GDMJGmLP4o0+RvMLZLZaUnjlQOgVmAADHP6hf2JZj/l2t/wDv0v8AhR/Ylnj/AI9bf/v0v+FKWqsEdHdH5U61+2n8DLu5a4j+Nnwzhu4YykEsPjC0DyDOcPmQ/TC4rU8CftWeF/i9qsPh/wAE634V8deNLkH7Lo+gatBdyXIfDfaJpV3G0tUDK0l1ICqKQqrPI8KTfqENHtUHyQxr9BWfZeD9O0yWR7e1tYWkk81zHEqF2ySWbAGTlmOTzlic8muRUZRd0dlTE88bM8X/AGYf2XLf4JWl5rGqTRa58QNciik1rVUVoRGEGUs7SB8GG0Us4UA73ZmkkLzMzn2xdDhlgZZFMiTD96jMWSQH7wKngg5JII/iPqamOjQlI0Kjy4XV0TaNqlR8uOOMHkY7/lV6NdqAegxzXYr21OM8T8b/ALAvwn8aa5/bTeFbXRvEsMIhttc0WR9M1OxAbeWingKtGxYksy4LZOc1xNx8C/ip8M0mbwj8ZnvrGxmEFrpnjHR7fVLS1s8naguI/s95LMSu1Li4u2G7IdZGBZvqJk3Z9+DVVdHhDKwjX5SSOBwTwe3pxnrjigD51i/bC+IXw/u7ez8dfBnxBbFY/Pur7wXf2/iTTrS3zs8xxIbO9aQMrfuLaynZw0Xls7PsHT/Cj9vj4Y/HHxSvhvwz4y0C48abHnPha8uvsHiNIV/jl0q4Ed9bjaQxM0CYVgw3qyM3rk/hu1uLxbiRXkmjYspdtyjK7T8v3fu7h0yA7Yxk1znxZ+APgn47eDrzw/448J+HPGnh+6mS4l0vXtMg1KzkkTJRjFMjKSrEsDjKsSQRQBrJ4imkNxtWKTyy6qYczZZQCV+XqQOcHDE5AHGa1rO/ju4lKMrblDLghgynoQRxg181Xv7EmqeAC/8Awrn4sfEjwPppHn/2PqOoxeKNDdkXKmWLVlnuorVW+V7exurRDEEEbxMN1SWvxd+Pnwpdv+Ek+H/hf4p2S8JqngbVINI1K6eQb0zpWqXKQW8MeHj3Lqlw8xVHVI1dhGAfTO7/AGv0p1fPJ/4KHeH7CT7NqPgf45WepW+I722i+FniG9S1mHEkYntrKW3mCtkCSCWSJwNyO6kMbB/4KKeEF4/4Qv48N7/8Ki8TjP8A5IUAe/UV4H/w8V8I/wDQlfHj/wANH4m/+QaT/h4x4N/6E346/wDhpvEn/wAhUAe9q+WI9KdXlXwQ/az0L47+MrjR9L0D4j6TcWtm94z+IfBGs6LbsiyImEuLq1jt3clwfKWYygA5jG1seq0AFFFFABRRRQAUUUUAFFFFABRRRQAUUUUAFFFFABRRRQAUUUUAFFFFABTfLX0p1FADfKUHOKdRRQAUUUUAFFFFABRRRQAUUUUAFFFFABRRRQAUUUUAFN8tfSnUUAN8unUUUAFFFFABTSoOeOvFOooAyx4ftwkir5iKzs5RXKpuJJJ2/d6kk8ck5OTTE8LWsYXb5q7XMnDkF2KhCWPViVGMtk8k5zzWvj9ab5a+lAFO10uOFQrNJKygDcxC5x7KAPyFXdgpFjC06gBuz2X8qabdSf4v++jUlFAEMFrHHM0gUeYwwW2jJH16/rU1FFABRRRQAUUUUAFFFFABRRRQAUUUUAFFFFAH/9k=;" vertex="1" parent="1">
          <mxGeometry x="330" y="140" width="428" height="303" as="geometry" />
        </mxCell>
        <mxCell id="yHEKnx-GvSuaAYxst1Mj-7" value="待检产品" style="text;html=1;strokeColor=none;fillColor=none;align=center;verticalAlign=middle;whiteSpace=wrap;rounded=0;" vertex="1" parent="1">
          <mxGeometry x="654" y="413" width="60" height="30" as="geometry" />
        </mxCell>
        <mxCell id="yHEKnx-GvSuaAYxst1Mj-8" value="光源" style="text;html=1;strokeColor=none;fillColor=none;align=center;verticalAlign=middle;whiteSpace=wrap;rounded=0;" vertex="1" parent="1">
          <mxGeometry x="358" y="246" width="60" height="30" as="geometry" />
        </mxCell>
        <mxCell id="yHEKnx-GvSuaAYxst1Mj-9" value="相机" style="text;html=1;strokeColor=none;fillColor=none;align=center;verticalAlign=middle;whiteSpace=wrap;rounded=0;" vertex="1" parent="1">
          <mxGeometry x="423" y="196" width="60" height="30" as="geometry" />
        </mxCell>
        <mxCell id="yHEKnx-GvSuaAYxst1Mj-10" value="图像采集卡" style="text;html=1;strokeColor=none;fillColor=none;align=center;verticalAlign=middle;whiteSpace=wrap;rounded=0;" vertex="1" parent="1">
          <mxGeometry x="465" y="147" width="69" height="30" as="geometry" />
        </mxCell>
        <mxCell id="yHEKnx-GvSuaAYxst1Mj-11" value="工业计算机" style="text;html=1;strokeColor=none;fillColor=none;align=center;verticalAlign=middle;whiteSpace=wrap;rounded=0;" vertex="1" parent="1">
          <mxGeometry x="673" y="147" width="69" height="30" as="geometry" />
        </mxCell>
      </root>
    </mxGraphModel>
  </diagram>
</mxfile>
